<?xml version="1.0" encoding="UTF-8"?>
<svg width="32" height="32" viewBox="0 0 32 32" fill="none" xmlns="http://www.w3.org/2000/svg">
    <rect width="32" height="32" rx="8" fill="#0D9488"/>
    <path d="M24 18v3c0 .55-.45 1-1 1h-2c-.55 0-1-.45-1-1v-1h-8v1c0 .55-.45 1-1 1h-2c-.55 0-1-.45-1-1v-3c-1.1 0-2-.9-2-2v-6c0-1.66 1.34-3 3-3h14c1.66 0 3 1.34 3 3v6c0 1.1-.9 2-2 2zm-4-5.5c0-.83-.67-1.5-1.5-1.5s-1.5.67-1.5 1.5.67 1.5 1.5 1.5 1.5-.67 1.5-1.5zm-12 0c0-.83-.67-1.5-1.5-1.5s-1.5.67-1.5 1.5.67 1.5 1.5 1.5 1.5-.67 1.5-1.5zm3-1.5c-.83 0-1.5.67-1.5 1.5s.67 1.5 1.5 1.5 1.5-.67 1.5-1.5-.67-1.5-1.5-1.5z" fill="white"/>
</svg>
